{
	"asset":{
		"generator":"Khronos glTF Blender I/O v3.5.30",
		"version":"2.0"
	},
	"extensionsUsed":[
		"KHR_materials_specular",
		"KHR_materials_ior"
	],
	"scene":0,
	"scenes":[
		{
			"name":"Scene",
			"nodes":[
				0,
				1,
				2,
				3,
				4,
				5,
				6,
				7,
				8,
				9,
				10,
				11
			]
		}
	],
	"nodes":[
		{
			"mesh":0,
			"name":"BB_017_001",
			"rotation":[
				0,
				-1,
				0,
				1.6292068494294654e-07
			],
			"translation":[
				-0.029148459434509277,
				0.4753530025482178,
				0.03344961628317833
			]
		},
		{
			"mesh":1,
			"name":"BB_017_002",
			"rotation":[
				0,
				-1,
				0,
				1.6292068494294654e-07
			],
			"translation":[
				-0.030613720417022705,
				0.4926018714904785,
				0.0343986451625824
			]
		},
		{
			"mesh":2,
			"name":"BB_017_003",
			"rotation":[
				0,
				-1,
				0,
				1.6292068494294654e-07
			],
			"translation":[
				-0.04805520176887512,
				0.22545909881591797,
				0.019250094890594482
			]
		},
		{
			"mesh":3,
			"name":"BB_017_004",
			"rotation":[
				0,
				-1,
				0,
				1.6292068494294654e-07
			],
			"translation":[
				-0.23416271805763245,
				0.4753531217575073,
				0.03344961628317833
			]
		},
		{
			"mesh":4,
			"name":"BB_017_005",
			"rotation":[
				0,
				-1,
				0,
				1.6292068494294654e-07
			],
			"translation":[
				-0.18323200941085815,
				0.13658034801483154,
				0.7660096883773804
			]
		},
		{
			"mesh":5,
			"name":"BB_017_006",
			"rotation":[
				0,
				-1,
				0,
				1.6292068494294654e-07
			],
			"translation":[
				0.08781462907791138,
				0.13658034801483154,
				0.7660096883773804
			]
		},
		{
			"mesh":6,
			"name":"BB_017_007",
			"rotation":[
				0,
				-1,
				0,
				1.6292068494294654e-07
			],
			"translation":[
				0.08781462907791138,
				0.13658034801483154,
				-0.6688007116317749
			]
		},
		{
			"mesh":7,
			"name":"BB_017_008",
			"rotation":[
				0,
				-1,
				0,
				1.6292068494294654e-07
			],
			"translation":[
				-0.18323200941085815,
				0.13658034801483154,
				-0.6688007116317749
			]
		},
		{
			"mesh":8,
			"name":"BB_017_009",
			"rotation":[
				0,
				-1,
				0,
				1.6292068494294654e-07
			],
			"translation":[
				-0.24458570778369904,
				0.7068318128585815,
				-0.6023629903793335
			]
		},
		{
			"mesh":9,
			"name":"BB_017_010",
			"rotation":[
				0,
				-1,
				0,
				1.6292068494294654e-07
			],
			"translation":[
				-0.24458570778369904,
				0.7068318128585815,
				-0.4698379337787628
			]
		},
		{
			"mesh":10,
			"name":"BB_017_011",
			"rotation":[
				0,
				-1,
				0,
				1.6292068494294654e-07
			],
			"translation":[
				-0.24458570778369904,
				0.7068318128585815,
				0.5987548232078552
			]
		},
		{
			"mesh":11,
			"name":"BB_017_012",
			"rotation":[
				0,
				-1,
				0,
				1.6292068494294654e-07
			],
			"translation":[
				-0.24458570778369904,
				0.4692622423171997,
				0.5987548232078552
			]
		}
	],
	"materials":[
		{
			"doubleSided":true,
			"name":"BB_017_001",
			"pbrMetallicRoughness":{}
		},
		{
			"doubleSided":true,
			"extensions":{
				"KHR_materials_specular":{
					"specularColorFactor":[
						0.6323619928259919,
						0.6323619928259919,
						0.6323619928259919
					]
				},
				"KHR_materials_ior":{
					"ior":1.4500000476837158
				}
			},
			"name":"BB_017_002",
			"pbrMetallicRoughness":{
				"baseColorFactor":[
					0.005893569439649582,
					0.005893569439649582,
					0.005893569439649582,
					1
				],
				"metallicFactor":0,
				"roughnessFactor":0.40833330154418945
			}
		},
		{
			"doubleSided":true,
			"name":"BB_017_003",
			"pbrMetallicRoughness":{}
		}
	],
	"meshes":[
		{
			"name":"BB_017_001",
			"primitives":[
				{
					"attributes":{
						"POSITION":0,
						"TEXCOORD_0":1,
						"NORMAL":2
					},
					"indices":3,
					"material":0
				}
			]
		},
		{
			"name":"BB_017_002",
			"primitives":[
				{
					"attributes":{
						"POSITION":4,
						"TEXCOORD_0":5,
						"NORMAL":6
					},
					"indices":7,
					"material":1
				}
			]
		},
		{
			"name":"BB_017_003",
			"primitives":[
				{
					"attributes":{
						"POSITION":8,
						"NORMAL":9
					},
					"indices":10,
					"material":1
				}
			]
		},
		{
			"name":"BB_017_004",
			"primitives":[
				{
					"attributes":{
						"POSITION":11,
						"TEXCOORD_0":12,
						"NORMAL":13
					},
					"indices":14,
					"material":0
				}
			]
		},
		{
			"name":"BB_017_005",
			"primitives":[
				{
					"attributes":{
						"POSITION":15,
						"NORMAL":16
					},
					"indices":17,
					"material":1
				}
			]
		},
		{
			"name":"BB_017_006",
			"primitives":[
				{
					"attributes":{
						"POSITION":18,
						"NORMAL":19
					},
					"indices":17,
					"material":1
				}
			]
		},
		{
			"name":"BB_017_007",
			"primitives":[
				{
					"attributes":{
						"POSITION":20,
						"NORMAL":21
					},
					"indices":17,
					"material":1
				}
			]
		},
		{
			"name":"BB_017_008",
			"primitives":[
				{
					"attributes":{
						"POSITION":22,
						"NORMAL":23
					},
					"indices":17,
					"material":1
				}
			]
		},
		{
			"name":"BB_017_009",
			"primitives":[
				{
					"attributes":{
						"POSITION":24,
						"NORMAL":25
					},
					"indices":26,
					"material":2
				}
			]
		},
		{
			"name":"BB_017_010",
			"primitives":[
				{
					"attributes":{
						"POSITION":27,
						"NORMAL":28
					},
					"indices":26,
					"material":2
				}
			]
		},
		{
			"name":"BB_017_011",
			"primitives":[
				{
					"attributes":{
						"POSITION":29,
						"NORMAL":30
					},
					"indices":26,
					"material":2
				}
			]
		},
		{
			"name":"BB_017_012",
			"primitives":[
				{
					"attributes":{
						"POSITION":31,
						"NORMAL":32
					},
					"indices":26,
					"material":2
				}
			]
		}
	],
	"accessors":[
		{
			"bufferView":0,
			"componentType":5126,
			"count":96,
			"max":[
				0.2010115683078766,
				0.2382955700159073,
				1.1353206634521484
			],
			"min":[
				-0.2010115683078766,
				-0.2382955700159073,
				-1.1353206634521484
			],
			"type":"VEC3"
		},
		{
			"bufferView":1,
			"componentType":5126,
			"count":96,
			"type":"VEC2"
		},
		{
			"bufferView":2,
			"componentType":5126,
			"count":96,
			"type":"VEC3"
		},
		{
			"bufferView":3,
			"componentType":5123,
			"count":144,
			"type":"SCALAR"
		},
		{
			"bufferView":4,
			"componentType":5126,
			"count":206,
			"max":[
				0.2085358202457428,
				0.2919245958328247,
				1.1387234926223755
			],
			"min":[
				-0.2085358202457428,
				-0.2919245958328247,
				-1.1387234926223755
			],
			"type":"VEC3"
		},
		{
			"bufferView":5,
			"componentType":5126,
			"count":206,
			"type":"VEC2"
		},
		{
			"bufferView":6,
			"componentType":5126,
			"count":206,
			"type":"VEC3"
		},
		{
			"bufferView":7,
			"componentType":5123,
			"count":468,
			"type":"SCALAR"
		},
		{
			"bufferView":8,
			"componentType":5126,
			"count":56,
			"max":[
				0.14456714689731598,
				0.022914407774806023,
				1.0108706951141357
			],
			"min":[
				-0.14456714689731598,
				-0.022914407774806023,
				-1.0108706951141357
			],
			"type":"VEC3"
		},
		{
			"bufferView":9,
			"componentType":5126,
			"count":56,
			"type":"VEC3"
		},
		{
			"bufferView":10,
			"componentType":5123,
			"count":132,
			"type":"SCALAR"
		},
		{
			"bufferView":11,
			"componentType":5126,
			"count":96,
			"max":[
				0.003055338514968753,
				0.2382955551147461,
				1.1353201866149902
			],
			"min":[
				-0.003055338514968753,
				-0.2382955551147461,
				-1.1353201866149902
			],
			"type":"VEC3"
		},
		{
			"bufferView":12,
			"componentType":5126,
			"count":96,
			"type":"VEC2"
		},
		{
			"bufferView":13,
			"componentType":5126,
			"count":96,
			"type":"VEC3"
		},
		{
			"bufferView":14,
			"componentType":5123,
			"count":144,
			"type":"SCALAR"
		},
		{
			"bufferView":15,
			"componentType":5126,
			"count":24,
			"max":[
				0.011112777516245842,
				0.13589103519916534,
				0.011112777516245842
			],
			"min":[
				-0.011112777516245842,
				-0.13589103519916534,
				-0.011112777516245842
			],
			"type":"VEC3"
		},
		{
			"bufferView":16,
			"componentType":5126,
			"count":24,
			"type":"VEC3"
		},
		{
			"bufferView":17,
			"componentType":5123,
			"count":36,
			"type":"SCALAR"
		},
		{
			"bufferView":18,
			"componentType":5126,
			"count":24,
			"max":[
				0.011112777516245842,
				0.13589103519916534,
				0.011112777516245842
			],
			"min":[
				-0.011112777516245842,
				-0.13589103519916534,
				-0.011112777516245842
			],
			"type":"VEC3"
		},
		{
			"bufferView":19,
			"componentType":5126,
			"count":24,
			"type":"VEC3"
		},
		{
			"bufferView":20,
			"componentType":5126,
			"count":24,
			"max":[
				0.011112777516245842,
				0.13589103519916534,
				0.011112777516245842
			],
			"min":[
				-0.011112777516245842,
				-0.13589103519916534,
				-0.011112777516245842
			],
			"type":"VEC3"
		},
		{
			"bufferView":21,
			"componentType":5126,
			"count":24,
			"type":"VEC3"
		},
		{
			"bufferView":22,
			"componentType":5126,
			"count":24,
			"max":[
				0.011112777516245842,
				0.13589103519916534,
				0.011112777516245842
			],
			"min":[
				-0.011112777516245842,
				-0.13589103519916534,
				-0.011112777516245842
			],
			"type":"VEC3"
		},
		{
			"bufferView":23,
			"componentType":5126,
			"count":24,
			"type":"VEC3"
		},
		{
			"bufferView":24,
			"componentType":5126,
			"count":8,
			"max":[
				0.0074339257553219795,
				0.003123353235423565,
				0.06432883441448212
			],
			"min":[
				-0.0074339257553219795,
				-0.003123353235423565,
				-0.06432883441448212
			],
			"type":"VEC3"
		},
		{
			"bufferView":25,
			"componentType":5126,
			"count":8,
			"type":"VEC3"
		},
		{
			"bufferView":26,
			"componentType":5123,
			"count":12,
			"type":"SCALAR"
		},
		{
			"bufferView":27,
			"componentType":5126,
			"count":8,
			"max":[
				0.0074339257553219795,
				0.003123353235423565,
				0.06432883441448212
			],
			"min":[
				-0.0074339257553219795,
				-0.003123353235423565,
				-0.06432883441448212
			],
			"type":"VEC3"
		},
		{
			"bufferView":28,
			"componentType":5126,
			"count":8,
			"type":"VEC3"
		},
		{
			"bufferView":29,
			"componentType":5126,
			"count":8,
			"max":[
				0.0074339257553219795,
				0.003123353235423565,
				0.1434493511915207
			],
			"min":[
				-0.0074339257553219795,
				-0.003123353235423565,
				-0.1434493511915207
			],
			"type":"VEC3"
		},
		{
			"bufferView":30,
			"componentType":5126,
			"count":8,
			"type":"VEC3"
		},
		{
			"bufferView":31,
			"componentType":5126,
			"count":8,
			"max":[
				0.0074339257553219795,
				0.003123353235423565,
				0.1434493511915207
			],
			"min":[
				-0.0074339257553219795,
				-0.003123353235423565,
				-0.1434493511915207
			],
			"type":"VEC3"
		},
		{
			"bufferView":32,
			"componentType":5126,
			"count":8,
			"type":"VEC3"
		}
	],
	"bufferViews":[
		{
			"buffer":0,
			"byteLength":1152,
			"byteOffset":0,
			"target":34962
		},
		{
			"buffer":0,
			"byteLength":768,
			"byteOffset":1152,
			"target":34962
		},
		{
			"buffer":0,
			"byteLength":1152,
			"byteOffset":1920,
			"target":34962
		},
		{
			"buffer":0,
			"byteLength":288,
			"byteOffset":3072,
			"target":34963
		},
		{
			"buffer":0,
			"byteLength":2472,
			"byteOffset":3360,
			"target":34962
		},
		{
			"buffer":0,
			"byteLength":1648,
			"byteOffset":5832,
			"target":34962
		},
		{
			"buffer":0,
			"byteLength":2472,
			"byteOffset":7480,
			"target":34962
		},
		{
			"buffer":0,
			"byteLength":936,
			"byteOffset":9952,
			"target":34963
		},
		{
			"buffer":0,
			"byteLength":672,
			"byteOffset":10888,
			"target":34962
		},
		{
			"buffer":0,
			"byteLength":672,
			"byteOffset":11560,
			"target":34962
		},
		{
			"buffer":0,
			"byteLength":264,
			"byteOffset":12232,
			"target":34963
		},
		{
			"buffer":0,
			"byteLength":1152,
			"byteOffset":12496,
			"target":34962
		},
		{
			"buffer":0,
			"byteLength":768,
			"byteOffset":13648,
			"target":34962
		},
		{
			"buffer":0,
			"byteLength":1152,
			"byteOffset":14416,
			"target":34962
		},
		{
			"buffer":0,
			"byteLength":288,
			"byteOffset":15568,
			"target":34963
		},
		{
			"buffer":0,
			"byteLength":288,
			"byteOffset":15856,
			"target":34962
		},
		{
			"buffer":0,
			"byteLength":288,
			"byteOffset":16144,
			"target":34962
		},
		{
			"buffer":0,
			"byteLength":72,
			"byteOffset":16432,
			"target":34963
		},
		{
			"buffer":0,
			"byteLength":288,
			"byteOffset":16504,
			"target":34962
		},
		{
			"buffer":0,
			"byteLength":288,
			"byteOffset":16792,
			"target":34962
		},
		{
			"buffer":0,
			"byteLength":288,
			"byteOffset":17080,
			"target":34962
		},
		{
			"buffer":0,
			"byteLength":288,
			"byteOffset":17368,
			"target":34962
		},
		{
			"buffer":0,
			"byteLength":288,
			"byteOffset":17656,
			"target":34962
		},
		{
			"buffer":0,
			"byteLength":288,
			"byteOffset":17944,
			"target":34962
		},
		{
			"buffer":0,
			"byteLength":96,
			"byteOffset":18232,
			"target":34962
		},
		{
			"buffer":0,
			"byteLength":96,
			"byteOffset":18328,
			"target":34962
		},
		{
			"buffer":0,
			"byteLength":24,
			"byteOffset":18424,
			"target":34963
		},
		{
			"buffer":0,
			"byteLength":96,
			"byteOffset":18448,
			"target":34962
		},
		{
			"buffer":0,
			"byteLength":96,
			"byteOffset":18544,
			"target":34962
		},
		{
			"buffer":0,
			"byteLength":96,
			"byteOffset":18640,
			"target":34962
		},
		{
			"buffer":0,
			"byteLength":96,
			"byteOffset":18736,
			"target":34962
		},
		{
			"buffer":0,
			"byteLength":96,
			"byteOffset":18832,
			"target":34962
		},
		{
			"buffer":0,
			"byteLength":96,
			"byteOffset":18928,
			"target":34962
		}
	],
	"buffers":[
		{
			"byteLength":19024,
			"uri":"data:application/octet-stream;base64,"
		}
	]
}
