{
	"asset":{
		"generator":"Khronos glTF Blender I/O v3.5.30",
		"version":"2.0"
	},
	"extensionsUsed":[
		"KHR_materials_specular",
		"KHR_texture_transform",
		"KHR_materials_sheen",
		"KHR_materials_ior"
	],
	"extensionsRequired":[
		"KHR_texture_transform"
	],
	"scene":0,
	"scenes":[
		{
			"name":"Scene",
			"nodes":[
				0,
				1,
				2,
				3,
				4,
				5,
				6,
				7,
				8,
				9
			]
		}
	],
	"nodes":[
		{
			"mesh":0,
			"name":"BB_018_010",
			"rotation":[
				0,
				-0.707283079624176,
				0,
				0.7069304585456848
			],
			"scale":[
				0.12721459567546844,
				0.12721459567546844,
				0.12721459567546844
			],
			"translation":[
				0.06648364663124084,
				0.10698030889034271,
				-0.47852858901023865
			]
		},
		{
			"mesh":1,
			"name":"BB_018_009",
			"rotation":[
				0,
				-0.707283079624176,
				0,
				0.7069304585456848
			],
			"scale":[
				0.12721459567546844,
				0.12721459567546844,
				0.12721459567546844
			],
			"translation":[
				-0.060895152390003204,
				0.29265207052230835,
				0.6460857391357422
			]
		},
		{
			"mesh":2,
			"name":"BB_018_008",
			"rotation":[
				0,
				-0.707283079624176,
				0,
				0.7069304585456848
			],
			"scale":[
				0.12721459567546844,
				0.12721459567546844,
				0.12721459567546844
			],
			"translation":[
				0.19319075345993042,
				0.10023422539234161,
				-0.7544659376144409
			]
		},
		{
			"mesh":3,
			"name":"BB_018_007",
			"rotation":[
				0,
				-0.707283079624176,
				0,
				0.7069304585456848
			],
			"scale":[
				0.12721459567546844,
				0.12721459567546844,
				0.12721459567546844
			],
			"translation":[
				0.19244009256362915,
				0.10023422539234161,
				0.7507938146591187
			]
		},
		{
			"mesh":4,
			"name":"BB_018_006",
			"rotation":[
				0,
				-0.707283079624176,
				0,
				0.7069304585456848
			],
			"scale":[
				0.12721459567546844,
				0.12721459567546844,
				0.12721459567546844
			],
			"translation":[
				-0.24067425727844238,
				0.10023422539234161,
				0.7557406425476074
			]
		},
		{
			"mesh":5,
			"name":"BB_018_005",
			"rotation":[
				0,
				-0.707283079624176,
				0,
				0.7069304585456848
			],
			"scale":[
				0.12721459567546844,
				0.12721459567546844,
				0.12721459567546844
			],
			"translation":[
				-0.23992139101028442,
				0.10023422539234161,
				-0.7546820044517517
			]
		},
		{
			"mesh":6,
			"name":"BB_018_004",
			"rotation":[
				0,
				-0.707283079624176,
				0,
				0.7069304585456848
			],
			"scale":[
				0.12721459567546844,
				0.12721459567546844,
				0.12721459567546844
			],
			"translation":[
				-0.060251519083976746,
				0.29265207052230835,
				-0.6438282132148743
			]
		},
		{
			"mesh":7,
			"name":"BB_018_003",
			"rotation":[
				0,
				-0.707283079624176,
				0,
				0.7069304585456848
			],
			"scale":[
				0.12721459567546844,
				0.12721459567546844,
				0.12721459567546844
			],
			"translation":[
				0.24614167213439941,
				0.4524995684623718,
				-0.37674084305763245
			]
		},
		{
			"mesh":8,
			"name":"BB_018_002",
			"rotation":[
				0,
				-0.7072831392288208,
				0,
				0.7069304585456848
			],
			"scale":[
				0.38698503375053406,
				0.38698506355285645,
				0.38698503375053406
			],
			"translation":[
				0.06648364663124084,
				0.10147592425346375,
				-0.47852858901023865
			]
		},
		{
			"mesh":9,
			"name":"BB_018_001",
			"rotation":[
				0,
				-0.707283079624176,
				0,
				0.7069304585456848
			],
			"scale":[
				0.12721459567546844,
				0.12721459567546844,
				0.12721459567546844
			],
			"translation":[
				0.24575859308242798,
				0.4524995684623718,
				0.39244362711906433
			]
		}
	],
	"materials":[
		{
			"doubleSided":true,
			"extensions":{
				"KHR_materials_specular":{
					"specularColorFactor":[
						0.07904521376726693,
						0.07904521376726693,
						0.07904521376726693
					]
				},
				"KHR_materials_sheen":{
					"sheenColorFactor":[
						1,
						1,
						1
					],
					"sheenColorTexture":{
						"extensions":{
							"KHR_texture_transform":{
								"offset":[
									0,
									-3
								],
								"scale":[
									4,
									4
								]
							}
						},
						"index":0
					},
					"sheenRoughnessFactor":0.4909090995788574
				},
				"KHR_materials_ior":{
					"ior":1.4500000476837158
				}
			},
			"name":"BB_018_003",
			"pbrMetallicRoughness":{
				"baseColorTexture":{
					"extensions":{
						"KHR_texture_transform":{
							"offset":[
								0,
								-3
							],
							"scale":[
								4,
								4
							]
						}
					},
					"index":1
				},
				"metallicFactor":0,
				"roughnessFactor":0.508333683013916
			}
		},
		{
			"doubleSided":true,
			"name":"BB_018_002",
			"pbrMetallicRoughness":{
				"baseColorFactor":[
					0.8149999976158142,
					0.8309999704360962,
					0.8389999866485596,
					1
				],
				"roughnessFactor":0.17499999701976776
			}
		}
	],
	"meshes":[
		{
			"name":"BB_018_010",
			"primitives":[
				{
					"attributes":{
						"POSITION":0,
						"TEXCOORD_0":1,
						"NORMAL":2
					},
					"indices":3,
					"material":0
				}
			]
		},
		{
			"name":"BB_018_009",
			"primitives":[
				{
					"attributes":{
						"POSITION":4,
						"TEXCOORD_0":5,
						"NORMAL":6
					},
					"indices":7,
					"material":0
				}
			]
		},
		{
			"name":"BB_018_008",
			"primitives":[
				{
					"attributes":{
						"POSITION":8,
						"NORMAL":9
					},
					"indices":10,
					"material":1
				}
			]
		},
		{
			"name":"BB_018_007",
			"primitives":[
				{
					"attributes":{
						"POSITION":11,
						"NORMAL":12
					},
					"indices":10,
					"material":1
				}
			]
		},
		{
			"name":"BB_018_006",
			"primitives":[
				{
					"attributes":{
						"POSITION":13,
						"NORMAL":14
					},
					"indices":10,
					"material":1
				}
			]
		},
		{
			"name":"BB_018_005",
			"primitives":[
				{
					"attributes":{
						"POSITION":15,
						"NORMAL":16
					},
					"indices":17,
					"material":1
				}
			]
		},
		{
			"name":"BB_018_004",
			"primitives":[
				{
					"attributes":{
						"POSITION":18,
						"TEXCOORD_0":19,
						"NORMAL":20
					},
					"indices":21,
					"material":0
				}
			]
		},
		{
			"name":"BB_018_003",
			"primitives":[
				{
					"attributes":{
						"COLOR_0":22,
						"POSITION":23,
						"TEXCOORD_0":24,
						"NORMAL":25
					},
					"indices":26,
					"material":0
				}
			]
		},
		{
			"name":"BB_018_002",
			"primitives":[
				{
					"attributes":{
						"POSITION":27,
						"TEXCOORD_0":28,
						"NORMAL":29
					},
					"indices":30,
					"material":0
				}
			]
		},
		{
			"name":"BB_018_001",
			"primitives":[
				{
					"attributes":{
						"COLOR_0":31,
						"POSITION":32,
						"TEXCOORD_0":33,
						"NORMAL":34
					},
					"indices":35,
					"material":0
				}
			]
		}
	],
	"textures":[
		{
			"sampler":0,
			"source":0
		},
		{
			"sampler":0,
			"source":0
		}
	],
	"images":[
		{
			"bufferView":4,
			"mimeType":"image/jpeg",
			"name":"BB_018"
		}
	],
	"accessors":[
		{
			"bufferView":0,
			"componentType":5126,
			"count":4500,
			"max":[
				9.811505317687988,
				0.28206121921539307,
				2.5712270736694336
			],
			"min":[
				-2.2978343963623047,
				0.039576806128025055,
				-1.17855966091156
			],
			"type":"VEC3"
		},
		{
			"bufferView":1,
			"componentType":5126,
			"count":4500,
			"type":"VEC2"
		},
		{
			"bufferView":2,
			"componentType":5126,
			"count":4500,
			"type":"VEC3"
		},
		{
			"bufferView":3,
			"componentType":5123,
			"count":24432,
			"type":"SCALAR"
		},
		{
			"bufferView":5,
			"componentType":5126,
			"count":1007,
			"max":[
				1.4493945837020874,
				1.6676069498062134,
				1.750535488128662
			],
			"min":[
				0.916388750076294,
				-1.4561578035354614,
				-2.2344985008239746
			],
			"type":"VEC3"
		},
		{
			"bufferView":6,
			"componentType":5126,
			"count":1007,
			"type":"VEC2"
		},
		{
			"bufferView":7,
			"componentType":5126,
			"count":1007,
			"type":"VEC3"
		},
		{
			"bufferView":8,
			"componentType":5123,
			"count":4194,
			"type":"SCALAR"
		},
		{
			"bufferView":9,
			"componentType":5126,
			"count":104,
			"max":[
				0.09579005092382431,
				0.09107102453708649,
				0.09579004347324371
			],
			"min":[
				-0.40867361426353455,
				-0.7725372314453125,
				-0.40867361426353455
			],
			"type":"VEC3"
		},
		{
			"bufferView":10,
			"componentType":5126,
			"count":104,
			"type":"VEC3"
		},
		{
			"bufferView":11,
			"componentType":5123,
			"count":612,
			"type":"SCALAR"
		},
		{
			"bufferView":12,
			"componentType":5126,
			"count":104,
			"max":[
				0.40867361426353455,
				0.09107102453708649,
				0.09579004347324371
			],
			"min":[
				-0.09579005092382431,
				-0.7725372314453125,
				-0.40867361426353455
			],
			"type":"VEC3"
		},
		{
			"bufferView":13,
			"componentType":5126,
			"count":104,
			"type":"VEC3"
		},
		{
			"bufferView":14,
			"componentType":5126,
			"count":104,
			"max":[
				0.3377354145050049,
				0.09107102453708649,
				0.4671943783760071
			],
			"min":[
				-0.08860372751951218,
				-0.7725372314453125,
				-0.10006582736968994
			],
			"type":"VEC3"
		},
		{
			"bufferView":15,
			"componentType":5126,
			"count":104,
			"type":"VEC3"
		},
		{
			"bufferView":16,
			"componentType":5126,
			"count":104,
			"max":[
				0.08860372751951218,
				0.09107102453708649,
				0.4671943783760071
			],
			"min":[
				-0.3377354145050049,
				-0.7725372314453125,
				-0.10006582736968994
			],
			"type":"VEC3"
		},
		{
			"bufferView":17,
			"componentType":5126,
			"count":104,
			"type":"VEC3"
		},
		{
			"bufferView":18,
			"componentType":5123,
			"count":612,
			"type":"SCALAR"
		},
		{
			"bufferView":19,
			"componentType":5126,
			"count":12126,
			"max":[
				-0.9042788743972778,
				1.6502127647399902,
				1.737670660018921
			],
			"min":[
				-1.3702211380004883,
				-1.4518839120864868,
				-2.229564905166626
			],
			"type":"VEC3"
		},
		{
			"bufferView":20,
			"componentType":5126,
			"count":12126,
			"type":"VEC2"
		},
		{
			"bufferView":21,
			"componentType":5126,
			"count":12126,
			"type":"VEC3"
		},
		{
			"bufferView":22,
			"componentType":5123,
			"count":67200,
			"type":"SCALAR"
		},
		{
			"bufferView":23,
			"componentType":5123,
			"count":581,
			"normalized":true,
			"type":"VEC4"
		},
		{
			"bufferView":24,
			"componentType":5126,
			"count":581,
			"max":[
				3.042954444885254,
				1.565539836883545,
				0.9352723360061646
			],
			"min":[
				-3.047067642211914,
				-1.489621877670288,
				-0.5611513257026672
			],
			"type":"VEC3"
		},
		{
			"bufferView":25,
			"componentType":5126,
			"count":581,
			"type":"VEC2"
		},
		{
			"bufferView":26,
			"componentType":5126,
			"count":581,
			"type":"VEC3"
		},
		{
			"bufferView":27,
			"componentType":5123,
			"count":2412,
			"type":"SCALAR"
		},
		{
			"bufferView":28,
			"componentType":5126,
			"count":9043,
			"max":[
				3.241142988204956,
				0.5552927255630493,
				0.9186265468597412
			],
			"min":[
				-0.768054723739624,
				0.07811030745506287,
				-0.2128952294588089
			],
			"type":"VEC3"
		},
		{
			"bufferView":29,
			"componentType":5126,
			"count":9043,
			"type":"VEC2"
		},
		{
			"bufferView":30,
			"componentType":5126,
			"count":9043,
			"type":"VEC3"
		},
		{
			"bufferView":31,
			"componentType":5123,
			"count":48816,
			"type":"SCALAR"
		},
		{
			"bufferView":32,
			"componentType":5123,
			"count":566,
			"normalized":true,
			"type":"VEC4"
		},
		{
			"bufferView":33,
			"componentType":5126,
			"count":566,
			"max":[
				3.0470681190490723,
				1.5655403137207031,
				0.9352720975875854
			],
			"min":[
				-3.0430455207824707,
				-1.489621877670288,
				-0.5611513257026672
			],
			"type":"VEC3"
		},
		{
			"bufferView":34,
			"componentType":5126,
			"count":566,
			"type":"VEC2"
		},
		{
			"bufferView":35,
			"componentType":5126,
			"count":566,
			"type":"VEC3"
		},
		{
			"bufferView":36,
			"componentType":5123,
			"count":2478,
			"type":"SCALAR"
		}
	],
	"bufferViews":[
		{
			"buffer":0,
			"byteLength":54000,
			"byteOffset":0,
			"target":34962
		},
		{
			"buffer":0,
			"byteLength":36000,
			"byteOffset":54000,
			"target":34962
		},
		{
			"buffer":0,
			"byteLength":54000,
			"byteOffset":90000,
			"target":34962
		},
		{
			"buffer":0,
			"byteLength":48864,
			"byteOffset":144000,
			"target":34963
		},
		{
			"buffer":0,
			"byteLength":645097,
			"byteOffset":192864
		},
		{
			"buffer":0,
			"byteLength":12084,
			"byteOffset":837964,
			"target":34962
		},
		{
			"buffer":0,
			"byteLength":8056,
			"byteOffset":850048,
			"target":34962
		},
		{
			"buffer":0,
			"byteLength":12084,
			"byteOffset":858104,
			"target":34962
		},
		{
			"buffer":0,
			"byteLength":8388,
			"byteOffset":870188,
			"target":34963
		},
		{
			"buffer":0,
			"byteLength":1248,
			"byteOffset":878576,
			"target":34962
		},
		{
			"buffer":0,
			"byteLength":1248,
			"byteOffset":879824,
			"target":34962
		},
		{
			"buffer":0,
			"byteLength":1224,
			"byteOffset":881072,
			"target":34963
		},
		{
			"buffer":0,
			"byteLength":1248,
			"byteOffset":882296,
			"target":34962
		},
		{
			"buffer":0,
			"byteLength":1248,
			"byteOffset":883544,
			"target":34962
		},
		{
			"buffer":0,
			"byteLength":1248,
			"byteOffset":884792,
			"target":34962
		},
		{
			"buffer":0,
			"byteLength":1248,
			"byteOffset":886040,
			"target":34962
		},
		{
			"buffer":0,
			"byteLength":1248,
			"byteOffset":887288,
			"target":34962
		},
		{
			"buffer":0,
			"byteLength":1248,
			"byteOffset":888536,
			"target":34962
		},
		{
			"buffer":0,
			"byteLength":1224,
			"byteOffset":889784,
			"target":34963
		},
		{
			"buffer":0,
			"byteLength":145512,
			"byteOffset":891008,
			"target":34962
		},
		{
			"buffer":0,
			"byteLength":97008,
			"byteOffset":1036520,
			"target":34962
		},
		{
			"buffer":0,
			"byteLength":145512,
			"byteOffset":1133528,
			"target":34962
		},
		{
			"buffer":0,
			"byteLength":134400,
			"byteOffset":1279040,
			"target":34963
		},
		{
			"buffer":0,
			"byteLength":4648,
			"byteOffset":1413440,
			"target":34962
		},
		{
			"buffer":0,
			"byteLength":6972,
			"byteOffset":1418088,
			"target":34962
		},
		{
			"buffer":0,
			"byteLength":4648,
			"byteOffset":1425060,
			"target":34962
		},
		{
			"buffer":0,
			"byteLength":6972,
			"byteOffset":1429708,
			"target":34962
		},
		{
			"buffer":0,
			"byteLength":4824,
			"byteOffset":1436680,
			"target":34963
		},
		{
			"buffer":0,
			"byteLength":108516,
			"byteOffset":1441504,
			"target":34962
		},
		{
			"buffer":0,
			"byteLength":72344,
			"byteOffset":1550020,
			"target":34962
		},
		{
			"buffer":0,
			"byteLength":108516,
			"byteOffset":1622364,
			"target":34962
		},
		{
			"buffer":0,
			"byteLength":97632,
			"byteOffset":1730880,
			"target":34963
		},
		{
			"buffer":0,
			"byteLength":4528,
			"byteOffset":1828512,
			"target":34962
		},
		{
			"buffer":0,
			"byteLength":6792,
			"byteOffset":1833040,
			"target":34962
		},
		{
			"buffer":0,
			"byteLength":4528,
			"byteOffset":1839832,
			"target":34962
		},
		{
			"buffer":0,
			"byteLength":6792,
			"byteOffset":1844360,
			"target":34962
		},
		{
			"buffer":0,
			"byteLength":4956,
			"byteOffset":1851152,
			"target":34963
		}
	],
	"samplers":[
		{
			"magFilter":9729,
			"minFilter":9987
		}
	],
	"buffers":[
		{
			"byteLength":1856108,
			"uri":"data:application/octet-stream;base64,"
		}
	]
}
